<?xml version="1.0" encoding="utf-8"?>
<!-- Generator: Adobe Illustrator 25.2.3, SVG Export Plug-In . SVG Version: 6.00 Build 0)  -->
<svg version="1.1" xmlns="http://www.w3.org/2000/svg" xmlns:xlink="http://www.w3.org/1999/xlink" x="0px" y="0px"
	 viewBox="0 0 954 244" style="enable-background:new 0 0 954 244;" xml:space="preserve">
<style type="text/css">
	.st0{fill:#30B4E9;}
	.st1{fill:url(#SVGID_1_);}
	.st2{fill:url(#SVGID_2_);}
	.st3{fill:#2268B1;}
	.st4{fill:#FFFFFF;}
</style>
<g id="Layer_1">
</g>
<g id="수정용">
	<g>
		<path class="st0" d="M143.7,21.7c3.1,0,5.6,2.5,5.6,5.6c0,3.1-2.5,5.6-5.6,5.6c-3.1,0-5.6-2.5-5.6-5.6
			C138.1,24.2,140.6,21.7,143.7,21.7 M143.7,12.1c-8.4,0-15.2,6.8-15.2,15.2c0,8.4,6.8,15.2,15.2,15.2c8.4,0,15.2-6.8,15.2-15.2
			C159,18.9,152.1,12.1,143.7,12.1"/>
		<linearGradient id="SVGID_1_" gradientUnits="userSpaceOnUse" x1="53.6225" y1="150.4471" x2="53.6225" y2="234.4604">
			<stop  offset="0" style="stop-color:#2268B1"/>
			<stop  offset="1" style="stop-color:#5BA3D4"/>
		</linearGradient>
		<polygon class="st1" points="48.6,205.7 62.6,232.3 91.6,232.3 77.6,205.7 44.6,143.2 15.6,143.2 		"/>
		<linearGradient id="SVGID_2_" gradientUnits="userSpaceOnUse" x1="139.8794" y1="54.605" x2="139.8794" y2="238.6804">
			<stop  offset="0" style="stop-color:#30B4E9"/>
			<stop  offset="1" style="stop-color:#097FD5"/>
		</linearGradient>
		<polygon class="st2" points="99.5,142.6 133.2,206.4 147.4,206.4 180.3,143.9 146.6,80 132.6,53.5 161.6,53.5 175.6,80 
			209.3,143.9 162.5,233 147.2,233 118.2,233 104.2,206.4 70.5,142.6 		"/>
		<polygon class="st3" points="153.4,142.6 120.4,80 106.4,53.5 77.4,53.5 62.1,53.5 15.3,142.6 16,143.9 45,143.9 44.3,142.6 
			77.1,80 91.4,80 124.4,142.6 125.1,143.9 154.1,143.9 		"/>
	</g>
	<path class="st4" d="M248.9,95.9c-0.7,1.5-1.4,3.2-2,5.2c-0.6,2-1.1,4.2-1.6,6.5c-0.4,2.3-0.8,4.7-1.1,7.2c-0.3,2.5-0.4,5-0.4,7.4
		c0,2.4,0.1,4.8,0.4,7.2c0.3,2.4,0.6,4.8,1.1,7.1c0.5,2.3,1,4.4,1.6,6.4c0.6,2,1.3,3.7,2,5.2h-5.5c-0.6-1.1-1.2-2.6-1.8-4.5
		c-0.6-1.9-1.2-4-1.6-6.3c-0.5-2.3-0.9-4.8-1.2-7.4c-0.3-2.6-0.4-5.2-0.4-7.8c0-2.6,0.2-5.3,0.5-7.9c0.3-2.6,0.7-5.1,1.2-7.5
		c0.5-2.4,1-4.5,1.6-6.4c0.6-1.9,1.2-3.4,1.9-4.6H248.9z"/>
	<path class="st4" d="M286.4,126c0.6,0,0.9,0.3,1.1,0.8c0.2,0.5,0.2,1.3,0.2,2.4c0,1-0.1,1.8-0.2,2.3c-0.2,0.5-0.5,0.8-1.1,0.8
		h-14.1v12c0,0.6-0.3,1-0.8,1.2c-0.5,0.2-1.2,0.3-2.2,0.3c-0.9,0-1.6-0.1-2.1-0.3c-0.5-0.2-0.8-0.6-0.8-1.2v-12h-15V126H286.4z
		 M281.7,100.7c0.6,0,0.9,0.3,1.1,0.8c0.2,0.5,0.2,1.3,0.2,2.4c0,1-0.1,1.8-0.2,2.3c-0.2,0.5-0.5,0.8-1.1,0.8h-9
		c0.4,1.1,1.1,2.1,2,3c0.9,1,1.9,1.9,2.9,2.7c1.1,0.8,2.1,1.6,3.2,2.3c1.1,0.7,2,1.3,2.8,1.7c0.4,0.2,0.5,0.5,0.5,0.9
		c0,0.4-0.2,1.1-0.7,2.1c-0.2,0.5-0.4,1-0.6,1.3c-0.2,0.3-0.3,0.6-0.4,0.7c-0.1,0.1-0.3,0.2-0.4,0.2c-0.2,0-0.3-0.1-0.5-0.2
		c-0.9-0.4-1.9-0.8-3-1.5c-1.1-0.6-2.2-1.4-3.4-2.2c-1.1-0.9-2.2-1.8-3.2-2.9c-1-1.1-1.8-2.2-2.5-3.3c-0.7,1.2-1.6,2.4-2.6,3.4
		c-1,1.1-2.1,2-3.1,2.9c-1.1,0.9-2.1,1.6-3.2,2.2c-1,0.6-1.9,1.2-2.7,1.7c-0.2,0.1-0.4,0.2-0.6,0.2c-0.2,0-0.4-0.1-0.6-0.2
		c-0.2-0.2-0.4-0.4-0.6-0.8c-0.2-0.4-0.5-0.9-0.7-1.5c-0.5-1-0.7-1.7-0.7-2.2c0-0.5,0.2-0.9,0.7-1.2c0.8-0.5,1.7-1.1,2.7-1.8
		c1-0.7,2-1.4,3.1-2.2c1-0.8,1.9-1.7,2.8-2.6c0.8-0.9,1.5-1.9,1.9-2.9h-9.7v-6.3H281.7z"/>
	<path class="st4" d="M295.7,95.9c0.6,1.2,1.2,2.7,1.9,4.6c0.6,1.9,1.2,4,1.6,6.4c0.5,2.4,0.9,4.8,1.2,7.5c0.3,2.6,0.5,5.3,0.5,7.9
		c0,2.6-0.1,5.2-0.4,7.8c-0.3,2.6-0.7,5.1-1.2,7.4c-0.5,2.3-1,4.4-1.6,6.3c-0.6,1.9-1.2,3.4-1.8,4.5h-5.5c0.7-1.5,1.4-3.2,2-5.2
		c0.6-2,1.1-4.1,1.6-6.4c0.5-2.3,0.8-4.6,1.1-7.1c0.3-2.4,0.4-4.9,0.4-7.2c0-2.4-0.1-4.9-0.4-7.4c-0.3-2.5-0.6-4.9-1.1-7.2
		c-0.4-2.3-1-4.5-1.6-6.5c-0.6-2-1.3-3.8-2-5.2H295.7z"/>
	<path class="st4" d="M326.3,139.6c-1,0-2.2-0.4-3.4-1.2c-1.2-0.8-2.3-1.6-3.2-2.5c-0.8-0.9-1.6-1.8-2.2-2.9c-0.7-1.1-1-2-1-2.7
		V95.7h35.7v38.1c0,1.8-0.4,3.2-1.3,4.2c-0.9,1-2.2,1.5-4.1,1.5H326.3z M327.1,128.8c0,1.2,0.6,1.8,1.7,1.8h12.7v-25.8h-14.4V128.8z
		 M373.5,154.1c0,0.9-0.5,1.5-1.4,1.8c-0.9,0.3-2.3,0.5-4,0.5c-1.6,0-2.9-0.1-3.8-0.4c-0.9-0.3-1.4-0.9-1.4-1.7V90.4h10.6V154.1z"/>
	<path class="st4" d="M397.3,104.7v24.1c0,1.2,0.6,1.8,1.7,1.8h25.5c0.9,0,1.4,0.4,1.7,1.2c0.3,0.8,0.4,1.9,0.4,3.3
		c0,1.5-0.1,2.6-0.4,3.4c-0.3,0.8-0.8,1.2-1.7,1.2h-28.1c-1,0-2.2-0.4-3.4-1.2c-1.2-0.8-2.3-1.6-3.2-2.5c-0.8-0.9-1.6-1.8-2.2-2.9
		c-0.7-1.1-1-2-1-2.7V95.7h33.5c0.9,0,1.4,0.4,1.7,1.2c0.3,0.8,0.4,1.9,0.4,3.3c0,1.5-0.1,2.6-0.4,3.4c-0.3,0.8-0.8,1.2-1.7,1.2
		H397.3z M442.9,154.1c0,0.9-0.5,1.5-1.4,1.8c-0.9,0.3-2.3,0.5-4,0.5c-1.6,0-2.9-0.1-3.9-0.4c-0.9-0.3-1.4-0.9-1.4-1.7V90.4h10.6
		V154.1z"/>
	<path class="st4" d="M453.5,116.4c0-3,0.5-5.8,1.5-8.3c1-2.5,2.4-4.6,4.1-6.4c1.8-1.8,3.9-3.2,6.4-4.2c2.5-1,5.2-1.5,8.1-1.5
		c2.5,0,4.9,0.4,7,1.1c2.2,0.7,4.1,1.8,5.8,3.1c1.7,1.4,3.1,3,4.3,4.9c1.2,1.9,2,4,2.5,6.3h8.5v-21h10.6v63.7c0,0.9-0.5,1.5-1.4,1.8
		c-0.9,0.3-2.3,0.5-4,0.5c-1.6,0-2.9-0.1-3.9-0.4c-0.9-0.3-1.4-0.9-1.4-1.7v-33.8h-8.3c-0.4,2.5-1.2,4.7-2.3,6.8
		c-1.2,2-2.6,3.8-4.3,5.2c-1.7,1.4-3.7,2.5-5.9,3.3c-2.2,0.8-4.6,1.2-7.2,1.2c-2.9,0-5.6-0.5-8.1-1.5c-2.5-1-4.6-2.4-6.4-4.2
		c-1.8-1.8-3.2-3.9-4.1-6.4C454,122.2,453.5,119.4,453.5,116.4 M483.3,116.4c0-3.4-0.9-6.2-2.7-8.4c-1.8-2.1-4.2-3.2-7-3.2
		c-2.8,0-5.2,1.1-7,3.2c-1.8,2.1-2.7,4.9-2.7,8.4c0,3.5,0.9,6.3,2.7,8.4c1.8,2.1,4.2,3.2,7,3.2c2.8,0,5.2-1.1,7-3.2
		C482.3,122.7,483.3,119.9,483.3,116.4"/>
	<path class="st4" d="M586.9,140.3c1,0,1.7,0.4,2,1.2c0.3,0.8,0.4,1.9,0.4,3.4c0,1.5-0.1,2.6-0.4,3.4c-0.3,0.7-0.9,1.1-2,1.1h-63.8
		v-9H586.9z M573.2,132.2c-1.6,0-2.9-0.2-3.8-0.5c-0.9-0.3-1.3-0.9-1.3-1.8v-23.5c0-0.7-0.1-1.2-0.4-1.4c-0.3-0.2-0.7-0.3-1.3-0.3
		h-34.6v-9h37c1,0,2.2,0.4,3.4,1.1c1.2,0.7,2.3,1.6,3.2,2.4c0.8,0.8,1.6,1.8,2.2,2.8c0.7,1.1,1,2,1,2.7v25.1c0,0.9-0.5,1.5-1.4,1.8
		C576.3,132,575,132.2,573.2,132.2"/>
	<path class="st4" d="M594.8,129.6v-7.7h63.8c1,0,1.7,0.3,2,0.8c0.3,0.6,0.4,1.6,0.4,3.1c0,1.5-0.1,2.5-0.4,3
		c-0.3,0.5-0.9,0.8-2,0.8h-25.8v5.1c0,1-0.5,1.6-1.5,1.9c-1,0.3-2.2,0.4-3.7,0.4c-1.5,0-2.8-0.1-3.8-0.4c-1.1-0.3-1.6-0.9-1.6-1.9
		v-5.1H594.8z M612.2,160.6c-0.9,0-1.8-0.3-2.7-0.8c-0.9-0.5-1.7-1.2-2.4-1.9c-0.9-0.9-1.6-1.8-2.2-2.6c-0.6-0.9-0.9-1.7-0.9-2.4
		v-18.6h10.4v5.2h26.2v-5.2h10.4v20.5c0,1.8-0.4,3.2-1.3,4.2c-0.9,1-2.2,1.5-4.1,1.5H612.2z M649.8,110.5c1,0,1.7,0.2,2,0.7
		c0.3,0.5,0.4,1.5,0.4,3c0,1.5-0.1,2.5-0.4,3c-0.3,0.5-0.9,0.7-2,0.7h-37.2c-0.9,0-1.8-0.3-2.7-0.8c-0.9-0.5-1.7-1.2-2.4-1.9
		c-0.9-0.9-1.6-1.7-2.2-2.6c-0.6-0.8-0.9-1.6-0.9-2.4V100h35.7v-3.1h-35.7v-7.4h42.3c1.1,0,2,0.3,2.7,0.9c0.6,0.6,1,1.5,1,2.7v14.2
		h-35.7v2.1c0,0.8,0.4,1.2,1.1,1.2H649.8z M614.5,151.4c0,0.8,0.4,1.2,1.1,1.2h25.1v-5.2h-26.2V151.4z"/>
	<path class="st4" d="M701.4,140.3c-1.2-1.1-2.5-2.4-3.8-3.7c-1.3-1.3-2.6-2.7-3.8-4.2c-1.2-1.5-2.3-3-3.4-4.6
		c-1.1-1.6-1.9-3.2-2.7-4.8c-0.8,1.7-1.8,3.4-3,5.2c-1.2,1.8-2.5,3.4-3.8,5c-1.4,1.6-2.8,3.1-4.2,4.5c-1.4,1.4-2.8,2.6-4.1,3.6
		c-0.8,0.6-1.6,0.7-2.4,0.3c-0.8-0.4-1.8-1.1-2.9-2.3c-1-1-1.7-1.9-2.1-2.7c-0.4-0.8-0.3-1.6,0.5-2.3c2-1.8,4-3.8,5.9-5.9
		c1.9-2.1,3.6-4.4,5.1-6.7c1.5-2.3,2.7-4.8,3.6-7.2c0.9-2.5,1.3-5,1.3-7.6V94.9h10.9v11.7c0,2.5,0.5,5,1.4,7.5
		c1,2.5,2.2,4.9,3.6,7.2c1.5,2.3,3.1,4.5,4.9,6.5c1.8,2,3.5,3.8,5.2,5.4c0.8,0.7,1,1.4,0.7,2.1c-0.3,0.7-1.1,1.6-2.2,2.8
		c-1,1-1.9,1.8-2.6,2.3C702.9,141,702.1,140.9,701.4,140.3 M712.8,90.4h10.6v21.7h11.6v9h-11.6v32.9c0,0.9-0.5,1.5-1.4,1.8
		c-0.9,0.3-2.3,0.5-4,0.5c-1.6,0-2.9-0.1-3.9-0.4c-0.9-0.3-1.4-0.9-1.4-1.7V90.4z"/>
	<path class="st4" d="M739.8,104.1H763v-5.2h-23.3v-8.3h29.8c1.2,0,2.1,0.3,2.7,0.9c0.6,0.6,1,1.4,1,2.6v18.3H750v3.4
		c0,1.2,0.6,1.8,1.7,1.8h24.8c0.9,0,1.4,0.3,1.7,1c0.3,0.6,0.4,1.7,0.4,3.1c0,1.5-0.1,2.6-0.4,3.2c-0.3,0.7-0.8,1-1.7,1h-27.1
		c-1,0-2.2-0.4-3.4-1.2c-1.2-0.8-2.3-1.6-3.2-2.5c-0.8-0.9-1.5-1.8-2.2-2.9c-0.6-1.1-0.9-2-0.9-2.7V104.1z M749.3,132.6h45.1V155
		c0,1.8-0.5,3.2-1.3,4.2c-0.9,1-2.3,1.5-4.3,1.5h-30.1c-1,0-2.1-0.4-3.2-1.1c-1.1-0.7-2.1-1.5-3-2.4c-0.8-0.8-1.6-1.7-2.2-2.7
		c-0.6-1-1-1.9-1-2.6V132.6z M759.8,150.4c0,1,0.5,1.5,1.4,1.5h22.7v-10.4h-24.1V150.4z M784.7,89.6h10.5v13.9h11.6v8.9h-11.6v14.4
		c0,0.9-0.5,1.6-1.4,1.9c-0.9,0.3-2.2,0.5-3.9,0.5c-1.6,0-2.9-0.2-3.9-0.5c-0.9-0.3-1.4-1-1.4-1.9V89.6z"/>
	<path class="st4" d="M851.2,138c1,0,1.7,0.4,2,1.2c0.3,0.8,0.4,1.9,0.4,3.4s-0.1,2.6-0.4,3.4c-0.3,0.7-0.9,1.1-2,1.1h-42.4v-9h11.3
		v-19.7h10.3V138H851.2z M843,128.4c-1.7,0-2.9-0.2-3.9-0.5c-0.9-0.3-1.4-0.9-1.4-1.8v-19.7c0-0.7-0.1-1.2-0.4-1.4
		c-0.3-0.2-0.7-0.3-1.3-0.3h-23.5v-9h26.1c1,0,2.2,0.4,3.4,1.1c1.2,0.7,2.3,1.6,3.2,2.4c0.8,0.8,1.6,1.8,2.2,2.8c0.7,1.1,1,2,1,2.7
		v21.4c0,0.9-0.5,1.5-1.4,1.8C846.1,128.2,844.7,128.4,843,128.4 M856.3,90.4h10.6v23.3h11.6v9.3h-11.6v31.1c0,0.9-0.5,1.5-1.4,1.8
		c-0.9,0.3-2.3,0.5-4,0.5c-1.6,0-2.9-0.1-3.9-0.4c-0.9-0.3-1.4-0.9-1.4-1.7V90.4z"/>
	<path class="st4" d="M938.6,134.2c0.9,0,1.4,0.4,1.7,1.2c0.2,0.8,0.3,1.9,0.3,3.2c0,1.4-0.1,2.5-0.3,3.2c-0.2,0.7-0.8,1.1-1.7,1.1
		H931v9h7.6c0.9,0,1.4,0.4,1.7,1.2c0.2,0.8,0.3,1.8,0.3,3.2c0,1.4-0.1,2.5-0.3,3.3c-0.2,0.7-0.8,1.1-1.7,1.1h-49.9v-8.7h9.1v-9h-9.1
		v-8.7h20.4v-6.5h-27.4v-8.4h63.8c1,0,1.7,0.3,2,1c0.3,0.7,0.4,1.7,0.4,3.2c0,1.5-0.1,2.6-0.4,3.2c-0.3,0.6-0.9,1-2,1h-25.8v6.5
		H938.6z M936.5,115.4c-1.8-0.6-3.7-1.3-5.8-2.2c-2.1-0.8-4.1-1.8-6.1-2.9c-2-1.1-3.8-2.3-5.6-3.6c-1.8-1.3-3.2-2.7-4.5-4.3
		c-1.3,1.7-3,3.2-4.9,4.6c-2,1.4-4,2.7-6.1,3.8c-2.1,1.1-4.1,2.1-6.1,2.8c-2,0.8-3.6,1.4-4.9,1.8c-1,0.3-1.7,0.3-2.2,0.1
		c-0.5-0.3-1.1-1.2-1.8-2.8c-0.7-1.5-1.1-2.6-1.2-3.3c-0.1-0.7,0.4-1.2,1.3-1.6c1.4-0.6,2.9-1.2,4.6-1.9c1.7-0.7,3.3-1.5,5-2.3
		c1.6-0.8,3.2-1.8,4.7-2.7c1.5-1,2.7-2,3.8-3.1c0.8-0.9,1.3-1.7,1.6-2.5c0.3-0.8,0.4-1.9,0.4-3.1v-3.9h11.1v4c0,2.2,0.8,4.2,2.5,5.9
		c1.1,1,2.4,2,3.9,3c1.5,1,3.1,1.9,4.7,2.8c1.6,0.9,3.3,1.6,4.8,2.3c1.6,0.7,2.9,1.2,4,1.6c0.5,0.2,0.9,0.3,1.1,0.5
		c0.2,0.2,0.3,0.5,0.3,0.9c0,0.4-0.1,0.8-0.3,1.3c-0.2,0.5-0.5,1.2-0.8,1.9c-0.3,0.8-0.6,1.4-0.8,1.8c-0.2,0.4-0.5,0.8-0.7,1
		c-0.3,0.2-0.5,0.3-0.9,0.3C937.5,115.7,937,115.6,936.5,115.4 M920.7,142.9h-12.6v9h12.6V142.9z"/>
	<g>
		<path class="st4" d="M484.7,208.5h-6.9v-10.9h-9.6v10.9h-6.9v-26.8h6.9v10.5h9.6v-10.5h6.9V208.5z"/>
		<path class="st4" d="M521.6,181.7h6.9v19.6c0,2.7-0.6,4.6-1.8,5.8s-3.2,1.8-5.8,1.8H512c-2.7,0-4.6-0.6-5.8-1.8s-1.8-3.2-1.8-5.8
			v-19.6h6.9v19.6c0,1.5,0.8,2.3,2.3,2.3h5.8c1.5,0,2.3-0.8,2.3-2.3V181.7z"/>
		<path class="st4" d="M571.1,193.5l-5.4,9.6h-5.4l-5.4-9.6v15h-6.9v-26.8h7.3l7.7,14.2l7.7-14.2h7.3v26.8h-6.9V193.5z"/>
		<path class="st4" d="M602.4,208.5h-7.5l10.2-26.8h7.7l10.2,26.8h-7.5l-1.7-4.8h-9.6L602.4,208.5z M605.9,198.7h6.1l-3.1-9
			L605.9,198.7z"/>
		<path class="st4" d="M663.3,208.5H656l-9.2-16.1v16.1h-6.9v-26.8h7.3l9.2,16.1v-16.1h6.9V208.5z"/>
		<path class="st4" d="M716.3,208.5h-6.9v-26.8h21.3v5.4h-14.4v6.3h11.3v5.4h-11.3V208.5z"/>
		<path class="st4" d="M772.6,201.2c0,2.7-0.6,4.6-1.8,5.8s-3.2,1.8-5.8,1.8h-9.6c-2.7,0-4.6-0.6-5.8-1.8s-1.8-3.2-1.8-5.8v-12.3
			c0-2.7,0.6-4.6,1.8-5.8c1.2-1.2,3.2-1.8,5.8-1.8h9.6c2.7,0,4.6,0.6,5.8,1.8c1.2,1.2,1.8,3.2,1.8,5.8V201.2z M765.7,188.9
			c0-1.5-0.8-2.3-2.3-2.3h-6.5c-1.5,0-2.3,0.8-2.3,2.3v12.3c0,1.5,0.8,2.3,2.3,2.3h6.5c1.5,0,2.3-0.8,2.3-2.3V188.9z"/>
		<path class="st4" d="M791.4,181.7h16.1c2.7,0,4.6,0.6,5.8,1.8c1.2,1.2,1.8,3.2,1.8,5.8v3.5c0,2.1-0.4,3.8-1.1,4.9
			c-0.7,1.2-1.8,2-3.4,2.3l4.8,8.4h-7.5l-4.4-8.1h-5.4v8.1h-6.9V181.7z M808.3,189.3c0-1.5-0.8-2.3-2.3-2.3h-7.7v8.1h7.7
			c1.5,0,2.3-0.8,2.3-2.3V189.3z"/>
		<path class="st4" d="M855.3,208.5h-21.3v-26.8h21.3v5.4H841v5.2h11.3v5.4H841v5.6h14.4V208.5z"/>
		<path class="st4" d="M872.6,202.9c7,0.4,11.7,0.6,14.2,0.6c0.6,0,1.1-0.2,1.4-0.5c0.3-0.3,0.5-0.8,0.5-1.4v-3.5h-8.8
			c-2.7,0-4.6-0.6-5.8-1.8c-1.2-1.2-1.8-3.2-1.8-5.8v-1.2c0-2.7,0.6-4.6,1.8-5.8c1.2-1.2,3.2-1.8,5.8-1.8h13.5v5.4h-11.9
			c-1.5,0-2.3,0.8-2.3,2.3v0.8c0,1.5,0.8,2.3,2.3,2.3h6.9c2.5,0,4.3,0.6,5.5,1.8c1.2,1.2,1.8,3,1.8,5.5v1.9c0,2.5-0.6,4.3-1.8,5.5
			s-3,1.8-5.5,1.8c-1.3,0-2.7,0-4.1-0.1l-3.5-0.2c-2.6-0.1-5.3-0.3-8.1-0.5V202.9z"/>
		<path class="st4" d="M925.3,208.5h-6.9V187h-8.1v-5.4h23v5.4h-8.1V208.5z"/>
	</g>
</g>
</svg>
